# xmcd
#
# Track frame offsets: 
#        150
#        17365
#        37117
#        56773
#        74490
#        87675
#        108685
#        123420
#        145817
#        161794
#        188619
#
# Disc length: 2724 seconds
#
# Revision: 0
# Processed by: cddbd v1.5.2PL0 Copyright (c) Steve Scherf et al.
# Submitted via: ExactAudioCopy v1.3
#
DISCID=a00aa20b
DTITLE=Memphis Cradle - Love, Lies, Burning
DYEAR=2012
DGENRE=Electric Blues
TTITLE0=Cold Cold Heart
TTITLE1=Really Gets My Best
TTITLE2=Devil Fishin'
TTITLE3=You've Been Warned
TTITLE4=Home Cookin'
TTITLE5=Living Close To The Flame
TTITLE6=Dirt Nap Serenade
TTITLE7=Ain't No Way
TTITLE8=Bad Axe
TTITLE9=Love Is In Your Eyes
TTITLE10=I'm Just Your Fool
EXTD=
EXTT0=
EXTT1=
EXTT2=
EXTT3=
EXTT4=
EXTT5=
EXTT6=
EXTT7=
EXTT8=
EXTT9=
EXTT10=
PLAYORDER=
